<svg xmlns="http://www.w3.org/2000/svg" viewBox="0 0 110 110" width="100%" height="100%">
  <defs>
    <linearGradient id="g-bb" x1="0%" y1="0%" x2="100%" y2="100%">
      <stop offset="0%" stop-color="#dbfcff" />
      <stop offset="100%" stop-color="#00dbe9" />
    </linearGradient>
    <linearGradient id="g-bm" x1="0%" y1="0%" x2="100%" y2="100%">
      <stop offset="0%" stop-color="#00dbe9" />
      <stop offset="100%" stop-color="#006970" />
    </linearGradient>
    <linearGradient id="g-pm" x1="0%" y1="0%" x2="100%" y2="100%">
      <stop offset="0%" stop-color="#e9b3ff" />
      <stop offset="100%" stop-color="#7d01b1" />
    </linearGradient>
    <linearGradient id="g-pd" x1="0%" y1="0%" x2="100%" y2="100%">
      <stop offset="0%" stop-color="#7d01b1" />
      <stop offset="100%" stop-color="#310048" />
    </linearGradient>
    <linearGradient id="g-m1" x1="0%" y1="0%" x2="100%" y2="100%">
      <stop offset="0%" stop-color="#00dbe9" />
      <stop offset="100%" stop-color="#7d01b1" />
    </linearGradient>
    <linearGradient id="g-dk" x1="0%" y1="0%" x2="100%" y2="100%">
      <stop offset="0%" stop-color="#353438" />
      <stop offset="100%" stop-color="#0e0e11" />
    </linearGradient>
    <filter id="n-glow" x="-20%" y="-20%" width="140%" height="140%">
      <feGaussianBlur stdDeviation="3" result="blur" />
      <feComposite in="SourceGraphic" in2="blur" operator="over" />
    </filter>
  </defs>

  <g transform="translate(5, 0)">
    <g stroke="rgba(0, 219, 233, 0.3)" stroke-width="1.5" stroke-dasharray="2 4">
      <line x1="55" y1="10" x2="65" y2="-5" />
      <line x1="90" y1="30" x2="110" y2="20" />
      <line x1="95" y1="70" x2="115" y2="85" />
      <line x1="10" y1="50" x2="-5" y2="40" />
      <line x1="65" y1="100" x2="70" y2="115" />
    </g>

    <g stroke-width="1" stroke-linejoin="round" opacity="0.9">
      <polygon points="65,100 25,85 65,65" fill="url(#g-dk)" stroke="#353438" />
      <polygon points="25,85 10,50 45,40" fill="url(#g-bm)" stroke="#006970" />
      <polygon points="10,50 25,20 45,40" fill="url(#g-bb)" stroke="#00dbe9" />
      <polygon points="95,70 65,100 65,65" fill="url(#g-pd)" stroke="#7d01b1" />
      <polygon points="45,40 65,65 25,85" fill="url(#g-dk)" stroke="#3b494b" />
      <polygon points="25,20 55,10 45,40" fill="url(#g-bb)" stroke="#dbfcff" />
      <polygon points="55,10 90,30 45,40" fill="url(#g-bb)" stroke="#00dbe9" />
      <polygon points="90,30 95,70 65,65" fill="url(#g-pm)" stroke="#e9b3ff" />
      <polygon points="45,40 90,30 65,65" fill="url(#g-m1)" stroke="#e9b3ff" />
    </g>

    <g fill="#ffffff" filter="url(#n-glow)">
      <circle cx="55" cy="10" r="2.5" fill="#dbfcff" />
      <circle cx="90" cy="30" r="3" fill="#e9b3ff" />
      <circle cx="95" cy="70" r="2.5" fill="#e9b3ff" />
      <circle cx="65" cy="100" r="2" fill="#7d01b1" />
      <circle cx="25" cy="85" r="2" fill="#006970" />
      <circle cx="10" cy="50" r="2.5" fill="#00dbe9" />
      <circle cx="25" cy="20" r="2" fill="#00dbe9" />
      <circle cx="45" cy="40" r="3.5" fill="#00dbe9" />
      <circle cx="65" cy="65" r="3.5" fill="#e9b3ff" />
    </g>
  </g>
</svg>
